#!OML:ASF H:\Terrain\Patient Classification 1\Animal2\Wednesday\Animal2.ASF
:FULLY-SPECIFIED
:DEGREES
199
root 9.22677 17.5688 -22.4973 2.30814 0.898859 -4.10422
lowerback 5.84124 -1.17975 3.73993
upperback 0.063752 -1.24729 2.14285
thorax -3.24394 -0.662287 0.220348
lowerneck -0.107414 5.67168 15.5766
upperneck 2.87483 8.16311 -19.3178
head 2.32551 4.02221 -8.33
rclavicle 1.56543e-015 9.54166e-015
rhumerus -26.0858 4.13232 -85.6243
rradius 21.5003
rwrist 16.8744
rhand -17.109 20.2165
rfingers 7.12502
rthumb 9.13018 -9.56589
lclavicle 1.56543e-015 9.54166e-015
lhumerus -41.5449 -9.48899 90.8602
lradius 39.0978
lwrist 17.8728
lhand -22.0084 25.2111
lfingers 7.12502
lthumb 4.40067 55.1454
rfemur -12.0795 -4.44707 28.0951
rtibia 26.7615
rfoot -22.9618 0.461629
rtoes 3.12053
lfemur -28.4682 5.6302 -17.6593
ltibia 63.2034
lfoot -11.9796 -3.56547
ltoes -24.6984
200
root 9.22605 17.5521 -22.3671 2.35872 0.913851 -4.23292
lowerback 5.77973 -1.20574 3.93718
upperback -0.0438119 -1.26718 2.15998
thorax -3.32543 -0.677116 0.130104
lowerneck 0.0682665 5.63266 15.5883
upperneck 3.00219 8.1482 -19.3377
head 2.32995 4.02148 -8.34504
rclavicle -1.7344e-014 4.19436e-014
rhumerus -25.9759 4.52789 -85.7414
rradius 22.0262
rwrist 16.579
rhand -16.8909 19.9033
rfingers 7.12502
rthumb 9.3406 -9.86973
lclavicle -1.7344e-014 4.19436e-014
lhumerus -41.8307 -9.25851 90.822
lradius 39.2944
lwrist 18.2484
lhand -22.0581 25.1229
lfingers 7.12502
lthumb 4.35268 55.0581
rfemur -11.6345 -4.99735 28.1919
rtibia 26.8029
rfoot -23.4405 0.793961
rtoes 2.50962
lfemur -29.4893 5.4066 -17.7051
ltibia 62.2239
lfoot -12.5303 -4.02686
ltoes -19.8413
201
root 9.22678 17.5402 -22.2311 2.33113 0.834282 -4.31558
lowerback 5.72149 -1.19405 4.05391
upperback 0.00127003 -1.24717 2.21711
thorax -3.24685 -0.667182 0.120098
lowerneck -0.0144376 5.67255 15.1799
upperneck 2.99076 8.18206 -19.0867
head 2.31849 4.03222 -8.18498
rclavicle -1.04362e-014 -2.18663e-015
rhumerus -25.572 5.04273 -85.7932
rradius 22.4576
rwrist 16.1518
rhand -16.7579 19.5839
rfingers 7.12502
rthumb 9.46893 -10.1833
lclavicle -1.04362e-014 -2.18663e-015
lhumerus -41.7284 -8.59818 90.537
lradius 39.3698
lwrist 17.3238
lhand -21.0613 25.7026
lfingers 7.12502
lthumb 5.31512 55.6159
rfemur -11.0558 -5.54183 28.2001
rtibia 26.7829
rfoot -23.9106 1.28477
rtoes 3.18369
lfemur -30.2578 5.25749 -17.8169
ltibia 61.0004
lfoot -13.1495 -3.99612
ltoes -20.293
202
root 9.22719 17.5299 -22.1012 2.31133 0.556223 -4.18555
lowerback 5.69257 -1.06884 4.01813
upperback 0.0567407 -1.09013 2.11777
thorax -3.16979 -0.587816 0.0224887
lowerneck -0.0248697 5.64311 15.0773
upperneck 2.89244 8.12483 -19.011
head 2.27432 4.00446 -8.1454
rclavicle -8.29926e-015 1.49089e-014
rhumerus -25.1207 5.15546 -85.8622
rradius 22.7012
rwrist 16.1283
rhand -16.8642 19.6218
rfingers 7.12502
rthumb 9.3664 -10.1501
lclavicle -8.29926e-015 1.49089e-014
lhumerus -41.6619 -8.35135 90.2773
lradius 39.4528
lwrist 16.6894
lhand -20.8032 25.9353
lfingers 7.12502
lthumb 5.56433 55.8422
rfemur -10.47 -5.92572 27.9733
rtibia 26.6459
rfoot -24.2685 1.56987
rtoes 2.70468
lfemur -30.9364 5.26525 -18.1832
ltibia 59.5586
lfoot -13.5099 -3.50845
ltoes -23.4059
203
root 9.22673 17.5257 -21.9711 2.39259 0.351332 -4.07882
lowerback 5.6069 -0.978175 3.98694
upperback 0.0098608 -0.977546 2.02795
thorax -3.16777 -0.532528 -0.0633148
lowerneck 0.106946 5.59552 15.1782
upperneck 2.89184 8.07737 -19.0747
head 2.24997 3.98783 -8.19132
rclavicle 6.68413e-015 -1.39149e-015
rhumerus -24.8001 5.24763 -85.9586
rradius 22.8967
rwrist 16.0887
rhand -17.1025 20.0713
rfingers 7.12502
rthumb 9.13645 -9.71078
lclavicle 6.68413e-015 -1.39149e-015
lhumerus -41.8207 -8.37971 90.2251
lradius 39.5289
lwrist 16.5355
lhand -21.2302 25.6707
lfingers 7.12502
lthumb 5.15206 55.5881
rfemur -9.90523 -6.17817 27.7895
rtibia 26.3266
rfoot -24.5451 1.75216
rtoes 1.76408
lfemur -31.694 5.18847 -18.476
ltibia 57.9734
lfoot -13.398 -3.18085
ltoes -22.7275
204
root 9.22895 17.5275 -21.8386 2.47934 0.126741 -4.28069
lowerback 5.55427 -0.882714 4.22549
upperback -0.0238413 -0.835148 2.0764
thorax -3.17166 -0.46549 -0.158927
lowerneck 0.262462 5.58629 15.0053
upperneck 2.73564 8.0595 -18.9632
head 2.16335 3.98816 -8.1306
rclavicle -9.81499e-015 -1.47101e-014
rhumerus -24.4985 5.65836 -86.0374
rradius 23.2609
rwrist 15.4498
rhand -17.5939 20.4421
rfingers 7.12502
rthumb 8.66225 -9.36014
lclavicle -9.81499e-015 -1.47101e-014
lhumerus -41.848 -8.19128 90.1626
lradius 39.4616
lwrist 15.7498
lhand -20.7235 25.7285
lfingers 7.12502
lthumb 5.6413 55.6334
rfemur -9.25612 -6.26316 27.9407
rtibia 25.863
rfoot -24.7209 2.10438
rtoes 1.75891
lfemur -32.3903 5.19057 -18.3672
ltibia 56.2855
lfoot -13.3939 -3.04658
ltoes -20.7282
205
root 9.23301 17.5258 -21.704 2.51174 -0.0877336 -4.50843
lowerback 5.56823 -0.800983 4.5921
upperback -0.0676255 -0.701091 2.03304
thorax -3.22569 -0.406299 -0.418872
lowerneck 0.3709 5.58127 15.0185
upperneck 2.64791 8.05163 -18.9049
head 2.11632 3.9915 -8.11775
rclavicle 8.34896e-015 -1.45113e-014
rhumerus -24.306 5.90155 -86.2409
rradius 23.6964
rwrist 14.8379
rhand -17.8484 20.4569
rfingers 7.12502
rthumb 8.41669 -9.35539
lclavicle 8.34896e-015 -1.45113e-014
lhumerus -41.9376 -8.06195 89.975
lradius 39.3223
lwrist 15.0859
lhand -20.2929 25.9794
lfingers 7.12502
lthumb 6.05706 55.8728
rfemur -8.43328 -6.53443 28.0827
rtibia 25.1992
rfoot -24.7986 2.95941
rtoes 3.72043
lfemur -32.9499 5.20147 -18.2468
ltibia 54.4869
lfoot -13.6451 -2.25964
ltoes -22.8582
